HIERARCHY
ROOT Hips
{
  OFFSET -1.56614 0.00 -1.85809
  CHANNELS 6 Xposition Yposition Zposition Zrotation Xrotation Yrotation
  JOINT LHipJoint
  {
    OFFSET 0 0 0
    CHANNELS 3 Zrotation Xrotation Yrotation
    JOINT LeftUpLeg
    {
      OFFSET 1.8 -1.4 0.085
      CHANNELS 3 Zrotation Xrotation Yrotation
      JOINT LeftLeg
      {
        OFFSET 2.215 -6 0
        CHANNELS 3 Zrotation Xrotation Yrotation
        JOINT LeftFoot
        {
          OFFSET 2.5 -6.9 0
          CHANNELS 3 Zrotation Xrotation Yrotation
          JOINT LeftToeBase
          {
            OFFSET 0.2 -0.5 1.95
            CHANNELS 3 Zrotation Xrotation Yrotation
            End Site
            {
              OFFSET 0 0 1
            }
          }
        }
      }
    }
  }
  JOINT RHipJoint
  {
    OFFSET 0 0 0
    CHANNELS 3 Zrotation Xrotation Yrotation
    JOINT RightUpLeg
    {
      OFFSET -1.8 -1.4 0.085
      CHANNELS 3 Zrotation Xrotation Yrotation
      JOINT RightLeg
      {
        OFFSET -2.215 -6 0
        CHANNELS 3 Zrotation Xrotation Yrotation
        JOINT RightFoot
        {
          OFFSET -2.5 -6.9 0
          CHANNELS 3 Zrotation Xrotation Yrotation
          JOINT RightToeBase
          {
            OFFSET -0.2 -0.5 1.95
            CHANNELS 3 Zrotation Xrotation Yrotation
            End Site
            {
              OFFSET 0 0 1
            }
          }
        }
      }
    }
  }
  JOINT LowerBack
  {
    OFFSET 0 0 0
    CHANNELS 3 Zrotation Xrotation Yrotation
    JOINT Spine
    {
      OFFSET -0.087 1.94 -0.2889
      CHANNELS 3 Zrotation Xrotation Yrotation
      JOINT Spine1
      {
        OFFSET 0 1.95 0.06
        CHANNELS 3 Zrotation Xrotation Yrotation
        JOINT Neck
        {
          OFFSET 0 0 0
          CHANNELS 3 Zrotation Xrotation Yrotation
          JOINT Neck1
          {
            OFFSET 0 1.6 0.34
            CHANNELS 3 Zrotation Xrotation Yrotation
            JOINT Head
            {
              OFFSET 0 1.667 -0.24
              CHANNELS 3 Zrotation Xrotation Yrotation
              End Site
              {
                OFFSET 0 1.686 -0.12
              }
            }
          }
        }
        JOINT LeftShoulder
        {
          OFFSET 0 0 0
          CHANNELS 3 Zrotation Xrotation Yrotation
          JOINT LeftArm
          {
            OFFSET 2.7 1.55 -0.73
            CHANNELS 3 Zrotation Xrotation Yrotation
            JOINT LeftForeArm
            {
              OFFSET 5.45 0 0
              CHANNELS 3 Zrotation Xrotation Yrotation
              JOINT LeftHand
              {
                OFFSET 3.45 0 0
                CHANNELS 3 Zrotation Xrotation Yrotation
                JOINT LeftFingerBase
                {
                  OFFSET 0 0 0
                  CHANNELS 3 Zrotation Xrotation Yrotation
                  JOINT LeftHandIndex1
                  {
                    OFFSET 0.75 0 0
                    CHANNELS 3 Zrotation Xrotation Yrotation
                    End Site
                    {
                      OFFSET 0.6 0 0
                    }
                  }
                }
                JOINT LThumb
                {
                  OFFSET 0 0 0
                  CHANNELS 3 Zrotation Xrotation Yrotation
                  End Site
                  {
                    OFFSET 0.59 0 0.59
                  }
                }
              }
            }
          }
        }
        JOINT RightShoulder
        {
          OFFSET 0 0 0
          CHANNELS 3 Zrotation Xrotation Yrotation
          JOINT RightArm
          {
            OFFSET -2.7 1.55 -0.73
            CHANNELS 3 Zrotation Xrotation Yrotation
            JOINT RightForeArm
            {
              OFFSET -5.45 0 0
              CHANNELS 3 Zrotation Xrotation Yrotation
              JOINT RightHand
              {
                OFFSET -3.45 0 0
                CHANNELS 3 Zrotation Xrotation Yrotation
                JOINT RightFingerBase
                {
                  OFFSET 0 0 0
                  CHANNELS 3 Zrotation Xrotation Yrotation
                  JOINT RightHandIndex1
                  {
                    OFFSET -0.75 0 0
                    CHANNELS 3 Zrotation Xrotation Yrotation
                    End Site
                    {
                      OFFSET -0.6 0 0
                    }
                  }
                }
                JOINT RThumb
                {
                  OFFSET 0 0 0
                  CHANNELS 3 Zrotation Xrotation Yrotation
                  End Site
                  {
                    OFFSET -0.59 0 0.59
                  }
                }
              }
            }
          }
        }
      }
    }
  }
}
MOTION
Frames:	8
Frame Time:	0.00833333
-21.1577 17.2187 -18.05 -35.4306 44.878 54.255 6.36111e-015 -3.18055e-015 -0 -25.3339 -58.6704 -31.225 1.62433 0.165711 -0.358556 -25.0506 10.2124 7.60305 7.55382e-015 1.59028e-015 -3.18055e-015 6.36111e-015 -3.18055e-015 -0 13.0772 -71.6798 30.1486 -0.311774 19.477 -12.3994 12.2507 33.407 -17.0695 6.36111e-015 0 -1.27222e-014 6.36111e-015 -3.18055e-015 -0 5.74998 44.814 -9.37404 -8.95489 6.81341 -5.2037 5.80541 5.29605 -2.57464 8.27314 42.1372 -5.39434 -11.4951 20.411 6.35061 2.62342 3.56037 -50.1383 -52.5509 -37.3723 -53.964 0.1069 59.5728 0.00382642 -5.393 -1.16837 3.94798 4.10423e-007 1.58257e-007 -2.68681e-010 6.36111e-015 -6.36111e-015 -3.18055e-015 0 3.18055e-015 -0 -0.341825 4.21797e-010 -3.50353 56.7639 24.9957 94.5312 12.2681 -66.3153 17.811 -32.9969 -8.63072 50.5904 -1.46931e-006 8.05909e-008 -4.70928e-008 -3.18055e-015 2.38542e-015 -6.36111e-015 -7.95139e-015 1.59028e-015 3.18055e-015 
-21.1382 17.2157 -18.0421 -35.58 44.8772 54.5901 3.18055e-015 -3.18055e-015 -7.95139e-015 -25.7649 -58.6593 -31.5951 1.58107 0.211914 -0.452123 -24.8893 10.1781 7.54898 2.38542e-015 -1.59028e-015 -0 3.18055e-015 -3.18055e-015 -7.95139e-015 12.594 -71.7489 29.8521 -0.35092 19.7431 -12.651 12.3923 33.0579 -16.9457 -3.18055e-015 -3.18055e-015 6.36111e-015 3.18055e-015 -3.18055e-015 -7.95139e-015 5.74966 44.8306 -9.50832 -9.09667 6.93476 -5.30099 5.79046 5.25883 -2.55976 8.24532 42.1011 -5.36779 -11.6066 20.4415 6.41962 2.94386 3.36954 -49.7318 -52.7377 -37.4848 -54.3586 -0.0498988 57.6813 0.00359616 -5.39524 -1.11265 3.99822 4.10423e-007 1.58257e-007 -2.68681e-010 -0 0 3.18055e-015 1.76556e-031 3.18055e-015 -3.18055e-015 -0.341825 4.21794e-010 -3.50353 56.8334 25.1698 94.5585 12.6104 -66.7121 18.1838 -32.8709 -8.71482 51.4315 -1.46931e-006 8.05909e-008 -4.70928e-008 -3.18055e-015 0 9.54166e-015 -1.59028e-015 1.59028e-015 6.36111e-015 
-21.1191 17.2127 -18.0348 -35.7231 44.8606 54.9304 3.18055e-015 6.36111e-015 -4.77083e-015 -26.1601 -58.6619 -31.9357 1.53045 0.282873 -0.604259 -24.8863 10.1778 7.54229 2.78299e-015 -2.38542e-015 3.18055e-015 3.18055e-015 6.36111e-015 -4.77083e-015 12.1215 -71.7948 29.5674 -0.407668 20.013 -12.9229 12.5218 32.6846 -16.8087 -3.18055e-015 0 -0 3.18055e-015 6.36111e-015 -4.77083e-015 5.74431 44.8371 -9.63783 -9.25212 7.08547 -5.39039 5.79574 5.2087 -2.56025 8.24842 42.0508 -5.36717 -11.7366 20.4881 6.47494 3.31061 3.15919 -49.3448 -52.9307 -37.6058 -54.7902 -0.282017 55.412 0.00335995 -5.54 -1.03354 3.96801 4.10423e-007 1.58257e-007 -2.68677e-010 3.18055e-015 -6.36111e-015 -0 6.36111e-015 9.54166e-015 3.18055e-015 -0.341825 4.21799e-010 -3.50353 56.8709 25.3086 94.6178 13.0546 -67.205 18.666 -32.6957 -8.76955 52.2604 -1.46931e-006 8.05909e-008 -4.70928e-008 2.38542e-015 -3.18055e-015 -6.36111e-015 3.53113e-031 3.18055e-015 -6.36111e-015 
-21.1004 17.2101 -18.0283 -35.8588 44.819 55.2762 3.18055e-015 -3.18055e-015 -1.59028e-015 -26.5388 -58.6567 -32.26 1.47973 0.364815 -0.791684 -24.9289 10.1887 7.55002 7.95139e-016 -7.95139e-016 -0 3.18055e-015 -3.18055e-015 -1.59028e-015 11.6242 -71.8147 29.2451 -0.46592 20.2673 -13.2076 12.6478 32.3277 -16.6792 3.18055e-015 0 -0 3.18055e-015 -3.18055e-015 -1.59028e-015 5.74055 44.8567 -9.76454 -9.40331 7.22941 -5.47686 5.81163 5.15499 -2.56741 8.2673 41.9963 -5.37861 -11.8527 20.5371 6.51856 3.69253 2.94505 -48.9898 -53.134 -37.7351 -55.2387 -0.48405 53.2481 0.00313667 -5.518 -0.93311 3.78177 4.10423e-007 1.58257e-007 -2.68681e-010 -4.77083e-015 0 3.18055e-015 -3.18055e-015 -6.36111e-015 -3.18055e-015 -0.341825 4.21796e-010 -3.50353 56.8742 25.4016 94.7027 13.6581 -67.8438 19.3191 -32.4749 -8.75235 52.7841 -1.46931e-006 8.05909e-008 -4.70928e-008 4.77083e-015 0 -0 1.98785e-015 1.59028e-015 3.18055e-015 
-21.082 17.2083 -18.0229 -35.9856 44.7438 55.6276 3.18055e-015 -6.36111e-015 1.59028e-015 -26.9196 -58.6227 -32.5807 1.43597 0.444409 -0.991933 -24.9089 10.189 7.54044 -5.1684e-015 -3.18055e-015 3.18055e-015 3.18055e-015 -6.36111e-015 1.59028e-015 11.0668 -71.8057 28.8367 -0.510698 20.487 -13.4973 12.7775 32.0272 -16.5767 -3.18055e-015 -3.18055e-015 -3.18055e-015 3.18055e-015 -6.36111e-015 1.59028e-015 5.74538 44.9119 -9.89091 -9.53301 7.33153 -5.56537 5.82891 5.10669 -2.57284 8.28737 41.9472 -5.38871 -11.9228 20.5754 6.55222 4.05845 2.74335 -48.6785 -53.3518 -37.8733 -55.6848 -0.552044 51.6621 0.00295189 -5.01949 -0.811931 3.35861 4.10423e-007 1.58257e-007 -2.68681e-010 -7.95139e-015 6.36111e-015 -6.36111e-015 3.18055e-015 -3.18055e-015 3.18055e-015 -0.341825 4.218e-010 -3.50353 56.8391 25.4358 94.8085 14.5143 -68.6927 20.242 -32.2073 -8.61938 52.6884 -1.46931e-006 8.05909e-008 -4.70928e-008 -3.97569e-016 7.95139e-016 -6.36111e-015 -1.59028e-015 7.95139e-016 -9.54166e-015 
-21.064 17.2071 -18.0186 -36.1029 44.6368 55.9892 -3.18055e-015 9.54166e-015 7.95139e-015 -27.3113 -58.5595 -32.908 1.40294 0.522349 -1.20717 -24.847 10.1796 7.5179 -1.19271e-015 0 3.18055e-015 -3.18055e-015 9.54166e-015 7.95139e-015 10.4378 -71.7698 28.3346 -0.543871 20.673 -13.7927 12.9093 31.7973 -16.5076 9.54166e-015 -3.18055e-015 -3.18055e-015 -3.18055e-015 9.54166e-015 7.95139e-015 5.7637 45.001 -10.0222 -9.64162 7.39247 -5.65916 5.84828 5.06299 -2.57679 8.30955 41.9027 -5.398 -11.9394 20.6058 6.57347 4.40285 2.55845 -48.4096 -53.5921 -38.0206 -56.1336 -0.461425 50.7014 0.00281873 -3.90996 -0.649076 2.58326 4.10423e-007 1.58257e-007 -2.68677e-010 6.36111e-015 -3.18055e-015 -3.18055e-015 6.36111e-015 -3.18055e-015 3.18055e-015 -0.341825 4.21796e-010 -3.50353 56.7302 25.3705 94.9687 15.9998 -70.0088 21.8316 -31.7951 -8.24225 51.516 -1.46931e-006 8.05909e-008 -4.70928e-008 3.97569e-016 -5.56597e-015 -3.18055e-015 3.18055e-015 -7.95139e-016 -0 
-21.0463 17.2065 -18.0153 -36.2103 44.501 56.3553 -3.18055e-015 3.18055e-015 -4.77083e-015 -27.6945 -58.479 -33.2248 1.37377 0.605163 -1.44755 -24.7829 10.1714 7.49557 -1.98785e-015 2.38542e-015 -0 -3.18055e-015 3.18055e-015 -4.77083e-015 9.77168 -71.7056 27.7765 -0.572631 20.8347 -14.0969 13.0392 31.6041 -16.4542 -3.18055e-015 3.18055e-015 -0 -3.18055e-015 3.18055e-015 -4.77083e-015 5.78801 45.1133 -10.153 -9.73836 7.43053 -5.75259 5.87406 5.01977 -2.58355 8.34084 41.8583 -5.41318 -11.9264 20.6328 6.58353 4.74597 2.37959 -48.1776 -53.8463 -38.176 -56.5919 -0.289917 50.07 0.00268636 -2.46968 -0.462433 1.60198 4.10423e-007 1.58257e-007 -2.68677e-010 6.36111e-015 0 -0 3.18055e-015 6.36111e-015 3.18055e-015 -0.341825 4.218e-010 -3.50353 56.5825 25.2479 95.1535 17.9971 -71.507 23.9475 -31.2922 -7.70605 49.8515 -1.46931e-006 8.05909e-008 -4.70928e-008 5.1684e-015 7.95139e-016 9.54166e-015 0 0 -0 
-21.0292 17.2066 -18.0126 -36.3079 44.337 56.7171 -3.18055e-015 0 -1.59028e-015 -28.0457 -58.3906 -33.5078 1.33985 0.69706 -1.71856 -24.726 10.1719 7.4791 -3.57812e-015 -7.95139e-016 -0 -3.18055e-015 0 -1.59028e-015 9.10849 -71.6094 27.2013 -0.60093 20.9785 -14.4113 13.1656 31.4085 -16.3973 -3.18055e-015 -6.36111e-015 3.18055e-015 -3.18055e-015 0 -1.59028e-015 5.80812 45.2426 -10.2739 -9.82989 7.45879 -5.83828 5.90879 4.97475 -2.5961 8.38552 41.8116 -5.43876 -11.9087 20.6575 6.58569 5.10786 2.19521 -47.9797 -54.1006 -38.3385 -57.0603 -0.119837 49.4994 0.00256092 -1.04048 -0.285939 0.636836 4.10423e-007 1.58257e-007 -2.68681e-010 -1.59028e-015 0 -0 -3.53113e-031 -6.36111e-015 -3.18055e-015 -0.341825 4.21795e-010 -3.50353 56.4561 25.1396 95.3091 19.9416 -72.7311 25.9891 -30.862 -7.24892 48.5743 -1.46931e-006 8.05909e-008 -4.70928e-008 3.97569e-016 0 3.18055e-015 -8.34896e-015 -7.95139e-016 -3.18055e-015 
